<svg id="Calque_1" data-name="Calque 1" xmlns="http://www.w3.org/2000/svg" viewBox="0 0 199.91 55"><defs><style>.cls-1{font-size:39.03px;fill:#dc2c28;font-family:bromello-Regular, bromello;}.cls-2{letter-spacing:0.05em;}.cls-3{font-family:AbrilFatface-Regular, Abril Fatface;}.cls-4{font-size:36.83px;}.cls-5{fill:#babfc1;}.cls-6{fill:#00588b;}.cls-7{fill:#fafafa;}</style></defs><text class="cls-1" transform="translate(0 37.98)"><tspan class="cls-2">F</tspan><tspan x="21.27" y="0">rug</tspan><tspan class="cls-3" x="66.15" y="0">’</tspan><tspan class="cls-4" x="76.3" y="0">Agile</tspan></text><path class="cls-5" d="M194.14,23c.07-.51.22-.87.64-1,.13,0,.28.1.25.24C195,22.67,194.69,22.92,194.14,23Z" transform="translate(0.26 -0.94)"/><path class="cls-6" d="M198.14,14.87a24,24,0,0,0-1.75-3.56.32.32,0,0,1-.14-.2l0-.06-.55-.84a23.32,23.32,0,0,0-2.89-3.3,21.6,21.6,0,0,0-18.32-5.73,21.24,21.24,0,0,0-11.37,5.36,24,24,0,0,0-3.57,4.1,3,3,0,0,1-.44.67c-.37.69-.77,1.35-1.1,2a21.77,21.77,0,0,0-2.11,10.77h1.9c0-.51,0-1,0-1.53C158,14.82,161.6,9,168.39,5.17a18.5,18.5,0,0,1,8.73-2.31,19.54,19.54,0,0,1,14.26,5.39,19.29,19.29,0,0,1,5.73,9.65,19.34,19.34,0,0,1-1.67,14.19,20,20,0,0,1-25,9.38,18.43,18.43,0,0,1-3.59-1.84.52.52,0,0,0-.48-.06l-7.48,2.22-.3.08.64-2.7c.45-1.88.89-3.76,1.34-5.63,0,0,0-.06,0-.09h-2.05a.33.33,0,0,1,0,.26c-.08.29-.15.57-.22.86a18.65,18.65,0,0,1-.66,2.75,4,4,0,0,1-.22.89,3.12,3.12,0,0,1-.22,1q-.63,2.71-1.27,5.47l.28-.06,9.77-2.93a.64.64,0,0,1,.57.07,16.85,16.85,0,0,0,1.78,1A22,22,0,0,0,193,38.59a26.49,26.49,0,0,0,2.61-3c0-.15.19-.21.24-.35a.72.72,0,0,1,.18-.33,15.58,15.58,0,0,0,1.48-2.57A21.8,21.8,0,0,0,198.14,14.87Z" transform="translate(0.26 -0.94)"/><polyline class="cls-6" points="154.85 21.59 157.46 25.05 159.14 21.18"/><path class="cls-6" d="M167.24,31.24c-.12.16-.19.4-.46.34s-.29-.34-.28-.58c.07-1.24.13-2.48.24-3.72a10.91,10.91,0,0,0,.1-2.24c-.63.37-1.21.78-1.84,1.07-1.34.62-2.67,1.29-4.23.81-.46-.14-1-.16-1.19-.68s.11-.67.37-.9a1.47,1.47,0,0,1,1.55-.29,1,1,0,0,1,.48.37c.47,1,1.16.74,2,.44a14.4,14.4,0,0,0,4.2-3.14c.37-.32.12-.47-.08-.63-1.72-1.36-1.44-4.35,0-6.23a2,2,0,0,1,2.73,0,4.17,4.17,0,0,1,.3,6.06c-.22.21-.48.38-.72.57a6.17,6.17,0,0,0,5.19.71c-.46-.46-1.27.16-1.5-.6a4.91,4.91,0,0,1-.14-1.75,20.85,20.85,0,0,0,0-3.62c-.07-.68.05-1,1-.95a33,33,0,0,0,4.45,0c.58,0,.74.14.72.68,0,1.65-.06,3.31-.06,5,0,.45-.39.71-.42,1.22a5,5,0,0,0,3.57-.89c-2.29-.36-2.42-.65-1.32-2.69a18.34,18.34,0,0,0,1.74-3.86c.19-.68.53-.76,1-.32a22.09,22.09,0,0,1,4,4.7c.33.5.12.83-.33,1.1a5.62,5.62,0,0,1-1.79.58c.25.67.88.88,1.41,1.13a10.15,10.15,0,0,0,3.19.87,2.21,2.21,0,0,0,2.55-1.42c.26-.56.54-1.07,1.26-1a.82.82,0,0,1,.8.81,1.33,1.33,0,0,1-1,1.45c-1.8.64-3.63,1.34-5.59.52-.61-.25-1.24-.43-1.94-.67.23,1.84.45,3.66.68,5.47.06.45.14.89.21,1.33s.19.71-.21.79-.41-.36-.45-.65c-.24-1.78-.43-3.56-.71-5.34a5.55,5.55,0,0,0-.81-2.64.52.52,0,0,0-.41-.25,1,1,0,0,0-1.16,0,3.26,3.26,0,0,0-1.49,2.13,19,19,0,0,0-.67,5.57c-.12.25,0,.74-.48.64s-.26-.49-.23-.78c.13-1.51.28-3,.42-4.53.09-.25,0-.33-.22-.2a3.92,3.92,0,0,1-2.78-.35c.87,2.21.37,4.33.88,6.36.08.31,0,.68-.3.78s-.44-.33-.48-.59c-.25-1.6,0-3.23-.33-4.83a4.11,4.11,0,0,0-1.45-2.84c-.35-.39-.67-.18-1,.07a3.78,3.78,0,0,0-.92,1.34,13.2,13.2,0,0,0-.88,6.12c-.79.41-.71-.2-.71-.63a15.64,15.64,0,0,1,.68-5.08,5,5,0,0,1-2.85-.53c.28,2,.54,3.91.8,5.81,0,.28.33.67-.13.78s-.49-.4-.53-.69c-.27-1.74-.46-3.49-.77-5.22-.15-.81-.25-1.74-1.19-2.16-1.21-.23-1.54.71-1.81,1.52A19,19,0,0,0,167.24,31.24Zm-5.68-4.85.25,0-.1-.15c-.61-.76-.69-.77-1.33-.12C160.73,26.39,161.18,26.25,161.56,26.39Zm7.32-4.64c.57.4,1.07.13,1.52-.18a3.49,3.49,0,0,0,0-5.16,1.16,1.16,0,0,0-1-.28c-.47-.21-.69.11-.92.42a4.56,4.56,0,0,0-.87,3A2.18,2.18,0,0,0,168.88,21.75Zm10.36-2.06h0c0-.69,0-1.38,0-2.06,0-.34,0-.63-.46-.62-1.21,0-2.41,0-3.61,0-.29,0-.53,0-.53.44q0,2,0,4c0,.56.25.71.74.72,1,0,2.07,0,3.1.1.53,0,.75-.14.72-.69S179.24,20.35,179.24,19.69Zm5-3.65a29.94,29.94,0,0,1-2.13,4.53c-.19.34-.48.87.27.83a28.54,28.54,0,0,0,5.21-.64c.42-.09.43-.33.21-.66A18.48,18.48,0,0,0,184.21,16Zm-12.78,7.88c1.57.9,2.58.94,3.47.19A15.7,15.7,0,0,1,171.43,23.92Zm11-.36a15.1,15.1,0,0,1-3.2.44A2.53,2.53,0,0,0,182.45,23.56ZM194.14,23c.55-.08.83-.33.89-.77,0-.14-.12-.29-.25-.24C194.36,22.13,194.21,22.49,194.14,23Z" transform="translate(0.26 -0.94)"/><path class="cls-5" d="M167.24,31.24a19,19,0,0,1,.7-6.45c.27-.81.6-1.75,1.81-1.52-1.24,1.26-1.13,3-1.44,4.53a18,18,0,0,0-.24,2.56C168,30.92,167.91,31.32,167.24,31.24Z" transform="translate(0.26 -0.94)"/><path class="cls-5" d="M182.19,29.8a19,19,0,0,1,.67-5.57,3.26,3.26,0,0,1,1.49-2.13,1,1,0,0,1,1.16,0c-2.35,1.68-2.26,4.34-2.7,6.78C182.74,29.33,182.77,29.76,182.19,29.8Z" transform="translate(0.26 -0.94)"/><path class="cls-5" d="M174.45,31a13.2,13.2,0,0,1,.88-6.12,3.78,3.78,0,0,1,.92-1.34c.3-.25.62-.46,1-.07-1.62,1.91-1.92,4.25-2.09,6.63C175.1,30.56,175.11,31,174.45,31Z" transform="translate(0.26 -0.94)"/><path class="cls-7" d="M179.24,19.69c0,.66,0,1.31,0,2s-.19.72-.72.69c-1-.06-2.07-.08-3.1-.1-.49,0-.76-.16-.74-.72q0-2,0-4c0-.42.24-.43.53-.44,1.2,0,2.4,0,3.61,0,.46,0,.46.28.46.62,0,.68,0,1.37,0,2.06Z" transform="translate(0.26 -0.94)"/><path class="cls-7" d="M184.21,16a18.48,18.48,0,0,1,3.56,4.06c.22.33.21.57-.21.66a28.54,28.54,0,0,1-5.21.64c-.75,0-.46-.49-.27-.83A29.94,29.94,0,0,0,184.21,16Z" transform="translate(0.26 -0.94)"/><path class="cls-7" d="M169.34,16.13a1.16,1.16,0,0,1,1,.28,3.49,3.49,0,0,1,0,5.16c-.45.31-1,.58-1.52.18A6.75,6.75,0,0,1,169.34,16.13Z" transform="translate(0.26 -0.94)"/><path class="cls-5" d="M169.34,16.13a6.75,6.75,0,0,0-.46,5.62,2.18,2.18,0,0,1-1.33-2.2,4.56,4.56,0,0,1,.87-3C168.65,16.24,168.87,15.92,169.34,16.13Z" transform="translate(0.26 -0.94)"/><path class="cls-7" d="M181.68,24.93c.26-.13.31-.05.22.2Z" transform="translate(0.26 -0.94)"/></svg>